<svg width="20" height="20" viewBox="0 0 20 20" fill="none" xmlns="http://www.w3.org/2000/svg">
<path d="M9.99996 18.9584C5.05829 18.9584 1.04163 14.9417 1.04163 10C1.04163 5.05835 5.05829 1.04169 9.99996 1.04169C14.9416 1.04169 18.9583 5.05835 18.9583 10C18.9583 14.9417 14.9416 18.9584 9.99996 18.9584ZM9.99996 2.29169C5.74996 2.29169 2.29163 5.75002 2.29163 10C2.29163 14.25 5.74996 17.7084 9.99996 17.7084C14.25 17.7084 17.7083 14.25 17.7083 10C17.7083 5.75002 14.25 2.29169 9.99996 2.29169Z" fill="#B82E2E"/>
<path d="M7.64172 12.9833C7.48338 12.9833 7.32505 12.925 7.20005 12.8C6.95838 12.5583 6.95838 12.1583 7.20005 11.9167L11.9167 7.19999C12.1584 6.95832 12.5584 6.95832 12.8 7.19999C13.0417 7.44165 13.0417 7.84165 12.8 8.08332L8.08338 12.8C7.96672 12.925 7.80005 12.9833 7.64172 12.9833Z" fill="#B82E2E"/>
<path d="M12.3584 12.9833C12.2 12.9833 12.0417 12.925 11.9167 12.8L7.20005 8.08332C6.95838 7.84165 6.95838 7.44165 7.20005 7.19999C7.44172 6.95832 7.84172 6.95832 8.08338 7.19999L12.8 11.9167C13.0417 12.1583 13.0417 12.5583 12.8 12.8C12.675 12.925 12.5167 12.9833 12.3584 12.9833Z" fill="#B82E2E"/>
</svg>
