<svg width="20" height="21" viewBox="0 0 20 21" fill="none" xmlns="http://www.w3.org/2000/svg">
<path d="M9.99996 19.4584C5.05829 19.4584 1.04163 15.4417 1.04163 10.5C1.04163 5.55835 5.05829 1.54169 9.99996 1.54169C14.9416 1.54169 18.9583 5.55835 18.9583 10.5C18.9583 15.4417 14.9416 19.4584 9.99996 19.4584ZM9.99996 2.79169C5.74996 2.79169 2.29163 6.25002 2.29163 10.5C2.29163 14.75 5.74996 18.2084 9.99996 18.2084C14.25 18.2084 17.7083 14.75 17.7083 10.5C17.7083 6.25002 14.25 2.79169 9.99996 2.79169Z" fill="#2BA824"/>
<path d="M8.8167 13.4833C8.65003 13.4833 8.4917 13.4167 8.37503 13.3L6.0167 10.9417C5.77503 10.7 5.77503 10.3 6.0167 10.0583C6.25837 9.81666 6.65837 9.81666 6.90003 10.0583L8.8167 11.975L13.1 7.69166C13.3417 7.44999 13.7417 7.44999 13.9834 7.69166C14.225 7.93332 14.225 8.33332 13.9834 8.57499L9.25837 13.3C9.1417 13.4167 8.98337 13.4833 8.8167 13.4833Z" fill="#2BA824"/>
</svg>
