<svg width="61" height="18" viewBox="0 0 61 18" fill="none" xmlns="http://www.w3.org/2000/svg">
<path d="M7.272 17H4.152L0.312 4.832H3.312L4.416 8.84C4.736 9.992 5 11.024 5.208 11.936C5.432 12.832 5.568 13.44 5.616 13.76L5.712 14.24C5.872 13.264 6.336 11.464 7.104 8.84L8.28 4.832H10.896L12.072 8.84C12.424 10.024 12.712 11.072 12.936 11.984C13.176 12.88 13.328 13.48 13.392 13.784L13.464 14.264C13.624 13.32 14.096 11.512 14.88 8.84L16.032 4.832H18.912L15.048 17H11.928L10.848 13.016C10.56 11.976 10.312 11.032 10.104 10.184C9.896 9.32 9.76 8.728 9.696 8.408L9.6 7.904C9.392 8.96 8.976 10.664 8.352 13.016L7.272 17ZM30.0668 16.328C29.2188 16.856 27.9948 17.12 26.3948 17.12C24.4588 17.12 22.9308 16.544 21.8108 15.392C20.6908 14.24 20.1308 12.752 20.1308 10.928C20.1308 8.992 20.6588 7.472 21.7148 6.368C22.7708 5.264 24.0908 4.712 25.6748 4.712C27.2588 4.712 28.5148 5.192 29.4428 6.152C30.3708 7.112 30.8348 8.512 30.8348 10.352C30.8348 10.8 30.7788 11.376 30.6668 12.08H23.0348C23.2428 12.96 23.6748 13.632 24.3308 14.096C25.0028 14.56 25.8348 14.792 26.8268 14.792C28.1068 14.792 29.1868 14.472 30.0668 13.832V16.328ZM25.7468 6.968C25.0588 6.968 24.4588 7.224 23.9468 7.736C23.4508 8.232 23.1308 8.96 22.9868 9.92H28.0988V9.56C28.0668 8.776 27.8508 8.152 27.4508 7.688C27.0668 7.208 26.4988 6.968 25.7468 6.968ZM46.1539 10.784C46.1539 12.88 45.5859 14.48 44.4499 15.584C43.3299 16.672 41.7859 17.216 39.8179 17.216C37.8979 17.216 36.3619 16.68 35.2099 15.608C34.0739 14.52 33.5059 12.968 33.5059 10.952V0.823999H36.5299V10.928C36.5299 12.16 36.8339 13.056 37.4419 13.616C38.0499 14.16 38.8419 14.432 39.8179 14.432C42.0259 14.432 43.1299 13.224 43.1299 10.808V0.823999H46.1539V10.784ZM54.5582 11.504H52.4462V17H49.4222V0.823999H54.4862C56.3102 0.823999 57.7662 1.32 58.8542 2.312C59.9582 3.304 60.5102 4.576 60.5102 6.128C60.5102 7.776 59.9422 9.088 58.8062 10.064C57.6862 11.024 56.2702 11.504 54.5582 11.504ZM54.2222 3.296H52.4462V9.056H54.1502C55.2542 9.056 56.0782 8.792 56.6222 8.264C57.1662 7.736 57.4382 7.024 57.4382 6.128C57.4382 5.248 57.1662 4.56 56.6222 4.064C56.0782 3.552 55.2782 3.296 54.2222 3.296Z" fill="url(#paint0_linear_27_38)"/>
<defs>
<linearGradient id="paint0_linear_27_38" x1="31" y1="-7" x2="31" y2="26" gradientUnits="userSpaceOnUse">
<stop stop-color="#8DB2E3"/>
<stop offset="1" stop-color="#143868"/>
</linearGradient>
</defs>
</svg>
